<svg xmlns="http://www.w3.org/2000/svg" xmlns:xlink="http://www.w3.org/1999/xlink" viewBox="0 0 446 290">
  <defs>
    <linearGradient id="linear-gradient" x1="168.01" y1="219.38" x2="483.34" y2="-109.59" gradientUnits="userSpaceOnUse">
      <stop offset="0.08" stop-color="#fff"/>
      <stop offset="0.1" stop-color="#fff" stop-opacity="0.97"/>
      <stop offset="0.15" stop-color="#fff" stop-opacity="0.88"/>
      <stop offset="0.2" stop-color="#fff" stop-opacity="0.74"/>
      <stop offset="0.26" stop-color="#fff" stop-opacity="0.54"/>
      <stop offset="0.32" stop-color="#fff" stop-opacity="0.28"/>
      <stop offset="0.39" stop-color="#fff" stop-opacity="0"/>
    </linearGradient>
  </defs>
  <title>Privacy-Policy-Section-Image</title>
  <g id="Sparkles">
    <path id="_7" data-name="7" d="M50.4,60c-3.8-.7-10.3-4.2-10.5-18.9a1,1,0,0,0-2,0h0c.2,16.7-7.5,17.9-10.8,18.5a1.1,1.1,0,0,0-1,1.1A1.3,1.3,0,0,0,27.2,62c3.6.5,11.2,2,11.4,17.3a1,1,0,0,0,1.1,1.1,1.1,1.1,0,0,0,1.1-1.2c-.2-15.3,6.3-16.1,9.8-16.9a1.1,1.1,0,0,0,.9-1.3A1.3,1.3,0,0,0,50.4,60Z" style="fill: #ffe75c"/>
    <path id="_6" data-name="6" d="M74.7,51c-2.1-.3-5.7-2.3-5.8-10.4a.5.5,0,0,0-.5-.5.6.6,0,0,0-.6.5h0c.2,9.2-4.1,9.8-5.9,10.2a.6.6,0,0,0-.6.5.7.7,0,0,0,.6.7c2,.3,6.2,1.1,6.3,9.6a.6.6,0,0,0,.6.6c.4,0,.6-.3.6-.7-.1-8.4,3.5-8.9,5.4-9.3s.6-.4.5-.7A.9.9,0,0,0,74.7,51Z" style="fill: #91ffad"/>
    <path id="_5" data-name="5" d="M69.8,81.3c-2.8-.4-7.6-3.1-7.7-13.8a.7.7,0,0,0-1.4,0h0c.1,12.2-5.5,13.1-7.9,13.5a1,1,0,0,0-.8.8,1.1,1.1,0,0,0,.8.9c2.7.3,8.2,1.4,8.4,12.6a.8.8,0,1,0,1.6,0c-.2-11.2,4.6-11.8,7.1-12.4a.8.8,0,0,0,.7-.9A1.1,1.1,0,0,0,69.8,81.3Z" style="fill: #8cd9ff"/>
    <path id="_4" data-name="4" d="M400.7,164.1c-2.6-.4-7.2-3-7.3-13.3a.8.8,0,0,0-.7-.7.7.7,0,0,0-.7.7h0c.1,11.7-5.3,12.6-7.7,13a.9.9,0,0,0-.6.8.7.7,0,0,0,.7.8c2.6.4,7.9,1.4,8.1,12.2a.7.7,0,0,0,.7.8.8.8,0,0,0,.8-.8c-.1-10.9,4.4-11.4,6.9-12a.8.8,0,0,0,.6-.9C401.5,164.5,401.2,164.2,400.7,164.1Z" style="fill: #8cd9ff"/>
    <path id="_3" data-name="3" d="M407.5,183.3c-1.2-.2-3.2-1.3-3.2-5.8a.3.3,0,0,0-.3-.3.3.3,0,0,0-.3.3h0c0,5.2-2.4,5.5-3.4,5.7s-.3.2-.3.4a.4.4,0,0,0,.4.3c1.1.2,3.4.7,3.5,5.4a.3.3,0,0,0,.3.3c.2,0,.4-.1.3-.3,0-4.8,2-5,3.1-5.3s.3-.2.3-.4Z" style="fill: #ffe75c"/>
    <path id="_2" data-name="2" d="M373.7,33.1c-1.4-.2-3.7-1.5-3.7-6.7,0-.2-.2-.3-.4-.3s-.3.1-.3.4h0c0,5.9-2.7,6.3-3.9,6.5s-.3.2-.3.4a.4.4,0,0,0,.4.4c1.3.2,3.9.7,4,6.1a.4.4,0,0,0,.4.4.4.4,0,0,0,.4-.4c-.1-5.4,2.2-5.7,3.4-6a.4.4,0,0,0,.4-.4Z" style="fill: #91ffad"/>
    <path id="_1" data-name="1" d="M401,50.9c-3.8-.6-10.3-4.2-10.5-18.9a.9.9,0,0,0-1-1,.9.9,0,0,0-.9,1h0c.2,16.7-7.6,17.9-10.9,18.5a1.4,1.4,0,0,0-1,1.1,1.3,1.3,0,0,0,1.1,1.2c3.7.5,11.3,2,11.5,17.3a1,1,0,0,0,1,1.1c.7.1,1.1-.5,1.1-1.2-.2-15.3,6.3-16.1,9.8-16.9a1,1,0,0,0,.9-1.3A1.3,1.3,0,0,0,401,50.9Z" style="fill: #ffe75c"/>
  </g>
  <g id="Book">
    <g id="Body">
      <polygon id="Spine" points="96.5 261.3 197.7 254.7 113.2 251.5 102.3 255.5 96.5 261.3" style="fill: #242145"/>
      <path id="Back_L" data-name="Back L" d="M260.5,250.7l-56.6-119-3.3-6.9c-2-5.1-3.6-6-9-6H28.7c-5.5,0,2,11.8,4,16.9L76.9,245.9c2,5.1-1.2,1.7,13.5,9.2H248.9C245.1,247.6,262.6,255.8,260.5,250.7Z" style="fill: #808bff"/>
      <path id="Back_Corner" data-name="Back Corner" d="M205.5,132.5l-3.7-7.9c-2.3-5.7-4.1-6.8-10.2-6.8H185a1.7,1.7,0,0,0-1.3,2.7C190,128.1,196.7,137.3,205.5,132.5Z" style="fill: #ffc619"/>
      <path id="Page_3_L" data-name="Page 3 L" d="M46.4,146.9s43.4,41.8,34.3,105.6l157.9-10.9s4.7-61.2-48.6-94.7" style="fill: #b0b4ff"/>
      <path id="Page_2_L" data-name="Page 2 L" d="M47.4,137.7S92,181.8,82.9,245.6l156.7-13.2s4.7-61.2-48.6-94.7" style="fill: #d1d4ff"/>
      <path id="Page_1_L" data-name="Page 1 L" d="M208.2,129.8,66.9,130.9l2.4,6-8-6H49.1s53.6,47.6,34.7,115.4l155.8-13.9S259.8,160.4,208.2,129.8Z" style="fill: #f4f6fd"/>
      <path d="M446,0H226c-12.4,20.4-25.5,50.9-36.7,96.3-17.6,71.3-81.7,48.6-100.1,141.4a86.5,86.5,0,0,1,62.7-35.4c3.1-.3,113.8-11,130.4-11a20.9,20.9,0,0,1,3.4.4c30.2-5.5,80.2-20.6,105-61.9,12.6-21.1,32.5-34,55.3-41.5Z" style="opacity: 0.4;fill: url(#linear-gradient)"/>
      <path id="Page_1_Shadow" data-name="Page 1 Shadow" d="M80,253.5l202.3-39-136.8-9.8S103.2,205.8,80,253.5Z" style="fill: #e3e5ff"/>
      <path id="Page_2" data-name="Page 2" d="M86.8,251.4s14.6-31.2,61-32.6,134.5-8.5,134.5-8.5,13.2,2,18,10.2c14.7,24.6,25.2,16.5,23.9,22-2,8.1-91.5,13.7-91.5,13.7L94.1,255.1Z" style="fill: #d1d4ff"/>
      <g id="Page_2_Content" data-name="Page 2 Content">
        <path d="M175.2,234.5a1.2,1.2,0,0,0,.8.4l.6-.2a1,1,0,0,0,.3-1.4,40.7,40.7,0,0,0-20.6-14.8l-7.3.3C155.5,220,167.6,223.6,175.2,234.5Z" style="fill: #b0b4ff"/>
        <path d="M190.3,234.5a.9.9,0,0,0,.8.4l.6-.2a1,1,0,0,0,.2-1.4c-6.3-7.7-12.2-12.6-17.4-15.6l-4.1.2C176.1,220.6,183,225.5,190.3,234.5Z" style="fill: #b0b4ff"/>
        <path d="M277.5,232.8a1.1,1.1,0,0,0,.9.6h.4a1,1,0,0,0,.6-1.3c-3.3-8.1-11.1-15.1-18.1-20.1l-3.2.2C265.4,217.2,274.1,224.5,277.5,232.8Z" style="fill: #b0b4ff"/>
        <path d="M288.5,231.3a1.3,1.3,0,0,0,.9.6h.4a1,1,0,0,0,.6-1.3c-3.2-7.7-10.4-14.5-17.2-19.4l-3.2.2C277.1,216.2,285.3,223.3,288.5,231.3Z" style="fill: #b0b4ff"/>
      </g>
      <path id="Page_2_Shadow" data-name="Page 2 Shadow" d="M88.9,249.3s27.1-40,66.8-22c14.7,6.7,14.3,24.6,38.6,26.2,28.7,1.9,32.4-10.9,32.4-10.9l102.9-6.8s.1,11.4-8.1,12.7-115.3,8-115.3,8l-100.5-3-8.4,1.2Z" style="fill: #b0b4ff"/>
      <path id="Pages_line" data-name="Pages line" d="M87.3,257.1l-1.5-1.3c.8-1,19.9-24.3,42.6-26.4,9.3-.9,17.8,2,25.3,8.4,15,12.8,16.4,13.1,25.6,15.1l3.8.9-.5,1.9-3.7-.8c-9.5-2.1-11.2-2.5-26.5-15.6-7.1-6.1-15.1-8.7-23.8-7.9C106.8,233.4,87.5,256.8,87.3,257.1Z" style="fill: #808bff"/>
      <path id="Page_1" data-name="Page 1" d="M84.4,244.9l.3.2c9.9-14.7,47.5-62.6,117.3-19.8l49.7-3-2.3-3L258,223l68-4s-27-27.7-43.7-27.7S155,202,151.9,202.3,108.7,204.5,84.4,244.9Z" style="fill: #fff"/>
      <rect id="Back_Rim" data-name="Back Rim" x="46.2" y="114.6" width="9" height="128.35" rx="3.4" transform="translate(-64.1 32.7) rotate(-22.3)" style="fill: #3442d9"/>
      <path id="Tongue" d="M86.2,198.9a111.4,111.4,0,0,0-5.9-21.2c-14.4,1.9-33.3,5.7-44.7,13.6l11.3,5.4-4.5,15.5S61.9,199.9,86.2,198.9Z" style="fill: #57f287"/>
      <path id="Black_Space" data-name="Black Space" d="M88.7,246.4c-7.7-4.1-15-5.2-16.5-2.4l27.7,14.7C101.3,256,96.3,250.4,88.7,246.4Z" style="fill: #242145"/>
      <path id="Front_Rims" data-name="Front Rims" d="M340,241.6,237.5,249h-.2l-130.6-1.8a2.8,2.8,0,0,0-1.3.3,4.8,4.8,0,0,0-2.2,1.2c-6.4,6.6-13.3,3.2-22.3-2.4-4.6-2.8-2.8-11.3-2.7-11.4a4.6,4.6,0,0,0-3.4-5.4,4.5,4.5,0,0,0-5.4,3.3c-1.3,5.5-1.4,16.2,6.9,21.3,4.6,2.8,11.7,7.2,19.3,7.2a18.7,18.7,0,0,0,12.9-5.2l128.6,1.7h.2l102.6-7.4c1.5-.1,2.7-1.7,2.7-3.6v-1.9C342.7,243,341.5,241.5,340,241.6Z" style="fill: #3442d9"/>
      <g id="Corners">
        <path d="M37,120a2.8,2.8,0,0,0-2.8-2.4l-8.4.2c-2.9,0-4.5,4.7-3.6,7l4.6,11.1a2.8,2.8,0,0,0,4.2,1.3c2.3-1.4,4.3-2.2,5.7-4.4S37.7,124.1,37,120Z" style="fill: #ffc619"/>
        <path d="M249.3,249.1a2.4,2.4,0,0,0-2.5-2.1l-9.1.8h-.2l-12.7-.2a2.4,2.4,0,0,0-2.4,2,18.7,18.7,0,0,0-.1,7.8,2.4,2.4,0,0,0,2.3,2.1l12.8.2h.2l9.8-.8a2.7,2.7,0,0,0,2.2-2.4A25.8,25.8,0,0,0,249.3,249.1Z" style="fill: #ffc619"/>
        <path d="M343.6,247.1v-2.5c0-2.4-1.4-4.2-3.1-4.1l-8.2.7a1.8,1.8,0,0,0-1.6,1.3,14.2,14.2,0,0,0,.2,8.7,1.6,1.6,0,0,0,1.7,1.1l7.8-.6C342.1,251.6,343.5,249.5,343.6,247.1Z" style="fill: #ffc619"/>
      </g>
    </g>
    <g id="Top_Content" data-name="Top Content">
      <path id="Square_L" data-name="Square L" d="M84,148.2s20.5,22.3,21.7,51.2l37.9-3.9s.9-34.2-21.6-47.8Z" style="fill: #8cd9ff"/>
      <g id="Lock">
        <path id="Lock-2" data-name="Lock" d="M113.7,177.4a11.3,11.3,0,0,1-9.8-6.8h0a6.4,6.4,0,0,1,.4-5.9,6.1,6.1,0,0,1,4.9-2.5l16.1-.4a11.2,11.2,0,0,1,9.9,6.9,6.5,6.5,0,0,1-.5,5.8,5.8,5.8,0,0,1-4.9,2.4l-15.9.5Zm-7-7.9a8.1,8.1,0,0,0,7.2,4.9l15.9-.5a2.8,2.8,0,0,0,2.4-1.1,3.6,3.6,0,0,0,.2-3.1,8.1,8.1,0,0,0-6.9-4.9h-.1l-16.1.4a3,3,0,0,0-2.5,1.2,3.1,3.1,0,0,0-.1,3.1Z" style="fill: #61acff"/>
        <path id="Body-2" data-name="Body" d="M118.3,180.7c-6.2.9-13.6-3.2-16.5-9.3s-.1-11.8,6.3-12.7,13.8,3.5,16.6,9.6S124.6,179.9,118.3,180.7Z" style="fill: #61acff"/>
        <path id="Back" d="M121.6,168.8c-2-4.7-7.5-8-12.4-7.4a7,7,0,0,0-4.4,2.3,7.3,7.3,0,0,0-.4,7.1c2.1,4.7,7.6,7.9,12.4,7.3a7,7,0,0,0,4.4-2.3C122.5,174,122.7,171.5,121.6,168.8Z" style="fill: #d5f2ff"/>
        <path id="Middle" d="M114.6,172.2a4,4,0,0,1-4.1-2.4c-.7-1.6,0-3,1.7-3.2a4,4,0,0,1,4.1,2.4C116.9,170.6,116.2,172,114.6,172.2Z" style="fill: #8cdcff"/>
      </g>
      <path id="Line_7" data-name="Line 7" d="M135.4,145.2a1,1,0,0,0-1.4,0,1.1,1.1,0,0,0,.1,1.4,60.7,60.7,0,0,1,14.3,23.6,1.2,1.2,0,0,0,1,.7h.3a1,1,0,0,0,.6-1.3A60,60,0,0,0,135.4,145.2Z" style="fill: #b0b4ff"/>
      <path id="Line_6" data-name="Line 6" d="M143.2,144.2a1.1,1.1,0,0,0-1.4.1,1.1,1.1,0,0,0,.1,1.5c.2.1,19.5,17.5,18.2,48.9a1,1,0,0,0,.9,1h.1a1,1,0,0,0,1-.9C163.4,162.4,143.4,144.4,143.2,144.2Z" style="fill: #b0b4ff"/>
      <path id="Line_5" data-name="Line 5" d="M185.2,140.9a1.2,1.2,0,0,0-1.5.1,1.1,1.1,0,0,0,.1,1.4c.2.1,14.8,13.8,17.3,35.3a1,1,0,0,0,1,.9h.1a1.2,1.2,0,0,0,.9-1.1A63.4,63.4,0,0,0,185.2,140.9Z" style="fill: #b0b4ff"/>
      <path id="Line_4" data-name="Line 4" d="M195,139.6a1.1,1.1,0,0,0-1.5,0,1.2,1.2,0,0,0,.1,1.5c.2.1,20.1,19.5,17.9,48.9a1,1,0,0,0,.9,1h.1a1,1,0,0,0,1-1C215.8,159.8,195.2,139.8,195,139.6Z" style="fill: #b0b4ff"/>
      <path id="Line_3" data-name="Line 3" d="M204.7,138.7a.9.9,0,0,0-1.4.1,1,1,0,0,0,.1,1.4c.2.2,21.6,19,18.9,48.9a1,1,0,0,0,.9,1h.1a.9.9,0,0,0,1-.9C227.1,158.4,204.9,138.9,204.7,138.7Z" style="fill: #b0b4ff"/>
      <path id="Light" d="M208.2,129.8l-34.8.3c-26,33-69.6,33.8-84.2,107.6a86.5,86.5,0,0,1,62.7-35.4c2.1-.2,53.3-5.1,91.4-8.3C242.1,171.9,234.5,145.4,208.2,129.8Z" style="fill: #fff;opacity: 0.4"/>
      <path id="Square_R" data-name="Square R" d="M205.2,214.2l52.5-3s-5.5-11.2-24-16.4l-67.3,6.1C177.3,202.1,194.1,205.4,205.2,214.2Z" style="fill: #d7f0ff"/>
      <path id="Line_2" data-name="Line 2" d="M270.1,207a1.1,1.1,0,0,0,.7.3l.7-.2a1.1,1.1,0,0,0,.1-1.4A55,55,0,0,0,254,193.1l-4.5.4A51.3,51.3,0,0,1,270.1,207Z" style="fill: #b0b4ff"/>
      <path id="Line_1" data-name="Line 1" d="M283.1,205.9a1.1,1.1,0,0,0,.8.3c.2,0,.5,0,.6-.2a.9.9,0,0,0,.1-1.4,47.1,47.1,0,0,0-17.1-12.5l-4.8.3A46.3,46.3,0,0,1,283.1,205.9Z" style="fill: #b0b4ff"/>
    </g>
  </g>
  <g id="Magnifying_Glass" data-name="Magnifying Glass">
    <path id="Handle" d="M341.8,204.4c-11.6-18.4-13.4-39.1-4.2-45.8s24.6,2.9,35.3,20.3,12.6,36.8,4.6,44.2S353.2,222.5,341.8,204.4Z"/>
    <path id="Green" d="M329,152.4l4.8-3.7a7.5,7.5,0,0,1,11.1,1.7h0a8.2,8.2,0,0,1-3,11.2l-5.2,3.1a6.9,6.9,0,0,1-9.5-2.3h0A7.6,7.6,0,0,1,329,152.4Z" style="fill: #57f287"/>
    <g id="Head">
      <path id="Rim_Shadow" data-name="Rim Shadow" d="M325.6,75c21.1,9.8,33.2,33.4,27.5,54.9-6.3,23.7-31.9,37.7-58.1,28.5-28-9.7-41.3-40-29.4-64.4C276.3,72.1,303.3,64.7,325.6,75Z"/>
      <path id="Rim" d="M327.7,72.5c20.9,9.8,33,33.1,27.4,54.3-6.1,23.3-31.4,36.9-57.3,27.7-27.5-9.7-40.8-39.6-29.1-63.6C279.1,69.3,305.7,62.1,327.7,72.5Z" style="fill: #5865f2"/>
      <path id="Glass_Shadow" data-name="Glass Shadow" d="M325.8,77.8c18,8.3,28.2,28.4,23.2,46.5-5.4,19.6-26.9,30.6-48.4,22.7S266.7,114,276,94C284.6,75.6,306.9,69.1,325.8,77.8Z" style="fill: #242145"/>
      <path id="Glass" d="M322.2,79.7a41,41,0,0,0-32.2-.9A33.9,33.9,0,0,0,276,94c-9.3,20,1.8,44.8,24.6,53,12.4,4.6,24.8,2.8,34.1-3.2a35.4,35.4,0,0,0,10.9-17.1C350.8,108.4,340.5,88.1,322.2,79.7Z" style="fill: #ffcfed"/>
      <g id="Highlights">
        <path id="Highlights_2" data-name="Highlights 2" d="M309.5,144.2a1.4,1.4,0,0,1-1.2-.7l-26.4-40.3a1.7,1.7,0,0,1,.4-2.1,1.5,1.5,0,0,1,2.1.4l26.4,40.4a1.4,1.4,0,0,1-.4,2Z" style="fill: #fff"/>
        <path id="Highlights_1" data-name="Highlights 1" d="M305.7,117.8a1.5,1.5,0,0,1-1.3-.7L289,93.2a1.6,1.6,0,0,1,.5-2.1,1.5,1.5,0,0,1,2,.5L307,115.5a1.6,1.6,0,0,1-.5,2.1Z" style="fill: #fff"/>
      </g>
    </g>
  </g>
</svg>
