<svg xmlns="http://www.w3.org/2000/svg" viewBox="0 0 446 290">
  <title>Privacy-Preserving-Products-Section-Image</title>
  <g id="Spotlight">
    <path id="Spotlight-2" data-name="Spotlight" d="M416.3,225.5c-4.9-10.1-18.6-19.1-38.3-26.5h.2a159.1,159.1,0,0,0,5.9-42.8C384.1,69.9,314.1,0,227.8,0A156.2,156.2,0,0,0,71.6,156.2,159.1,159.1,0,0,0,77.5,199h.2c-19.7,7.4-33.4,16.4-38.3,26.5C23.3,258.7,106.5,290,227.8,290S432.4,258.7,416.3,225.5Z" style="fill: #fff"/>
  </g>
  <g id="Bottom_Latches" data-name="Bottom Latches">
    <path id="Bottom_Latch_2" data-name="Bottom Latch 2" d="M298.6,185.4l-12-3.4c-2.8-.8-3.8-3.6-2.1-6.1h0a7.9,7.9,0,0,1,8.3-3l12,3.4c2.8.8,3.8,3.5,2.1,6h0A7.9,7.9,0,0,1,298.6,185.4Z" style="fill: #3442d9"/>
    <path id="Bottom_Latch_1" data-name="Bottom Latch 1" d="M193.6,159.7l-12-3.5c-2.9-.8-3.8-3.5-2.1-6h0a8.1,8.1,0,0,1,8.3-3.1l11.9,3.5a3.7,3.7,0,0,1,2.2,6h0A8.2,8.2,0,0,1,193.6,159.7Z" style="fill: #3442d9"/>
  </g>
  <g id="Floor_Shadow" data-name="Floor Shadow">
    <path id="Floor_Shadow-2" data-name="Floor Shadow" d="M361.1,248.4a13.4,13.4,0,0,0-3.5-6.2c-2.7-3.4-7.4-6.2-13.1-8.1l11.4-10.7a3.3,3.3,0,0,0,1.2-3.2l-.6-6.3a1.5,1.5,0,0,0-.1-.7,4.4,4.4,0,0,0-2.8-1.9L254.7,185c-4.5-1.2-10.6-.9-13.7.7l-30,15.7c-4.7-6.7-9-12.7-9.5-13.3s-2-.7-3.8.2l-8.2,5.4-.8-.4c-3.4-2.1-7.3.7-7.3.7l-2.1,1.3a82.8,82.8,0,0,0-16.8-1.1l-10.7,5.9a43.3,43.3,0,0,0-8-.4L92.8,228s4,.3,10.6,1.1l-5.9,3s7.1.4,17.6,1.8l-1,.6a4.5,4.5,0,0,0,.7,8.4l23.5,7.4-2.2,7.9a3.8,3.8,0,0,0,2.5,4.5l52.3,16.8H192a3.9,3.9,0,0,0,1.8-.4,4.2,4.2,0,0,0,1.8-2.3l2.2-8.1L243,283a5,5,0,0,0,3.6-.4l19.8-11.3c13.4-3.7,24.2-9.1,26.5-13a6.7,6.7,0,0,0,4.7.5,6.4,6.4,0,0,0,2-1.1c3.8,3.6,10.1,6.6,18.6,8.2C342.4,270.5,363.9,261.2,361.1,248.4ZM189.5,271.3l-45.3-14.6,1.2-4.2,45.4,14.1Z"/>
  </g>
  <g id="Suitcase_Back" data-name="Suitcase Back">
    <ellipse id="Latch_L" data-name="Latch L" cx="217.7" cy="70.7" rx="7.5" ry="6.5" transform="translate(-11.2 69.4) rotate(-17.7)" style="fill: #3442d9"/>
    <ellipse id="Latch_R" data-name="Latch R" cx="316.8" cy="85" rx="7.5" ry="6.5" transform="translate(-10.9 100.2) rotate(-17.7)" style="fill: #3442d9"/>
    <path id="Back_Back" data-name="Back Back" d="M306.3,181.6c-5.3-1-5.3-17.9-12.7-19.8-32.6-8-64.6-25.2-63.9-28L336.3,88.4l7.2,16.7a12.9,12.9,0,0,1,1.4,8.8l-10.6,53.7A14.1,14.1,0,0,1,324,178.7C317.6,180.5,309.6,182.3,306.3,181.6Z" style="fill: #8cd9ff"/>
    <path id="Back_Wall" data-name="Back Wall" d="M305.9,179.3,186.6,146.1a6.3,6.3,0,0,1-4.4-7.5L197,72.7a6.2,6.2,0,0,1,7-4.8L329.4,86.1a6.3,6.3,0,0,1,5.2,7.8l-20.9,80.9A6.3,6.3,0,0,1,305.9,179.3Z"/>
    <path id="Back_Floor" data-name="Back Floor" d="M307.7,179.3,200.3,149.4a5.7,5.7,0,0,1-4-6.7l13.3-59.3a5.6,5.6,0,0,1,6.3-4.4l113,16.3a5.7,5.7,0,0,1,4.6,7.1l-18.8,72.9A5.6,5.6,0,0,1,307.7,179.3Z" style="fill: #3442d9"/>
    <path id="Back_Rim" data-name="Back Rim" d="M307.3,181.7a8.5,8.5,0,0,1-2.2-.4L184.7,147.8a8.4,8.4,0,0,1-6-10l14.9-66.5a8.5,8.5,0,0,1,9.5-6.5L329.6,83.1a8.9,8.9,0,0,1,5.9,3.7,8.6,8.6,0,0,1,1.1,6.8l-21.1,81.7a8.5,8.5,0,0,1-8.2,6.4ZM201.9,68.9a4.4,4.4,0,0,0-4.2,3.3l-14.9,66.5a4.2,4.2,0,0,0,3,5l120.4,33.6a4.7,4.7,0,0,0,3.3-.4,4.3,4.3,0,0,0,2-2.7l21-81.6a4.8,4.8,0,0,0-.5-3.5,4.5,4.5,0,0,0-3-1.8L202.5,68.9Z" style="fill: #3f99f2"/>
  </g>
  <g id="Suitcase_Bottom" data-name="Suitcase Bottom">
    <polygon id="Wall" points="116.6 179.1 248.7 216.8 306.1 189.2 172.4 149.4 116.6 179.1"/>
    <polygon id="FLoor" points="299.4 203.4 174.5 168.5 123.8 197 231.9 232.4 299.4 203.4" style="fill: #3442d9"/>
    <ellipse id="Handle_Shadow" data-name="Handle Shadow" cx="262.9" cy="208" rx="26.3" ry="5.4" transform="translate(-15.1 20.7) rotate(-4.4)"/>
    <path d="M203.9,212.3c-4.7,0-9.1-1.2-11.3-3.4a5.7,5.7,0,0,1-1.7-5.4c.8-3,4-5.6,9-7.1l6.3-1.9c7.3-2.3,15.8-1.2,19.3,2.3a5.3,5.3,0,0,1,1.7,5.3c-.8,3-4,5.6-8.9,7.1l-6.4,2A27.6,27.6,0,0,1,203.9,212.3Zm10.3-14.8a23.8,23.8,0,0,0-6.8,1l-6.3,1.9c-3.8,1.2-5.8,2.9-6.1,4.1a1.7,1.7,0,0,0,.5,1.4c2.2,2.1,8.9,3.1,15.2,1.2l6.3-1.9c3.8-1.1,5.8-2.9,6.1-4.1a1.2,1.2,0,0,0-.5-1.3C221.2,198.4,218,197.5,214.2,197.5Z"/>
  </g>
  <g id="Back_Rim-2" data-name="Back Rim">
    <polygon id="Back_Rim-3" data-name="Back Rim" points="306.1 185 171.9 147.3 166.7 149.9 166.7 149.9 109.7 177.7 113.4 181.8 173.1 151.7 300.1 187.9 306.1 185" style="fill: #3f99f2"/>
  </g>
  <g id="Sunglasses">
    <path id="Body" d="M283.9,58c-1.5-1-3.2-1.6-4.9-.9-11,4.1-51,19.3-52.9,20.3s-5.9,2.7-5.9,7.7c0,2.7.6,4.5,2.5,5a3.3,3.3,0,0,0,4.1-2.9c.4-3.1.2-3.7,1.3-4.8s32.7-11.7,48.1-16.7a1.3,1.3,0,0,1,1.7,1.3c0,.4-.1.9-.1,1.3-.4,12,5.3,21.2,13.1,21.2a18.7,18.7,0,0,0,9.8-3.4c1.3-1,2.9-.3,3.8,1.2a8.6,8.6,0,0,1,.5,3c.1,2.8.1,4.9.3,6.9a.4.4,0,0,1,.1.3c-13,3.7-31.7,9.3-33,9.7s-4.3,1.7-4.9,5.3.3,4.2,1.5,4.6a2.7,2.7,0,0,0,3.3-1.7c.8-1.8-.4-3.1,1.1-4.4s20.6-5.6,33.8-8.8c3.7,5.9,12.1,7.3,13.3-6.2.2-3.2-5.5-9.8-13.2-17.5-3.8-3.7-7.6-7.9-11.4-11.3A108.4,108.4,0,0,0,283.9,58Z" style="fill: #57f287"/>
    <path id="Shade_L" data-name="Shade L" d="M281.6,69.6c-1,10,3.5,16.2,9,17.1a11.8,11.8,0,0,0,7.4-1.9c3.1-2.2,4.8-5.3,3.8-7.2s-10.1-11.9-15.1-14.2C283.2,61.8,282,65.1,281.6,69.6Z" style="fill: #5865f2"/>
    <path id="Shade_R" data-name="Shade R" d="M316.3,103.1c-4.2,3.7-8.7-2.7-8.8-9.9,0-3.2.7-7.3,2.9-6.8s6,4.1,7.6,7.7a8.8,8.8,0,0,1,.3,4.8A7.9,7.9,0,0,1,316.3,103.1Z" style="fill: #5865f2"/>
  </g>
  <g id="Folder">
    <path id="Back" d="M157.1,196.7s-50-36.3-51.6-38.1-4.9-3.7,1.7-10.2,61.2-68.9,61.2-68.9,3.9-5.1,6.7-.6,24.5,44.6,24.5,44.6l3.1,13.5Z" style="fill: #d11583"/>
    <path id="Paper_3" data-name="Paper 3" d="M184.3,144.9S162,97,139.6,96.8L87.4,145s44.1,9.9,69.7,51.7c0,0,6.8-43.6,10.8-45.7C180.7,144.5,184.3,144.9,184.3,144.9Z" style="fill: #b0b4ff"/>
    <path id="Paper_2" data-name="Paper 2" d="M180.5,136.3s-24.2-49.4-46.6-49.7L83.8,136.5s49.7,13.3,73.3,60.2c0,0,3.4-20.7,6.2-21.5C174.1,171.9,180.5,136.3,180.5,136.3Z" style="fill: #d1d4ff"/>
    <path id="Paper_1" data-name="Paper 1" d="M181.9,103S177,79,151.5,77.8L97.6,131.2s37.1,10,59.5,65.5c0,0,6.1-23.3,8.4-24,9.6-3,15.6-57,15.6-57Z" style="fill: #f4f5fd"/>
    <path id="Front" d="M170.5,96.9l-36.8,39,23.4,60.8L202.7,137s-14.5-64.3-15.5-66.8c-.2-.8-1.6-1.8-3.4,0s-13.5,15.9-14.1,17-1.3,1.5-.6,4.1S170.5,96.9,170.5,96.9Z" style="fill: #ff78b9"/>
  </g>
  <g id="Key">
    <path id="String" d="M206.6,185.6a1.3,1.3,0,0,1-.4-1.2,1.1,1.1,0,0,1,1.3-.8c5.8,1.5,9.7,1.7,14.2-1.6s10.5-12.1,17.5-26.8c4.4-9.3,10.7-13.4,15.3-16.5s7-4.8,6-9.1-5.5-5.5-8-5.8c-7.9-.8-19,4.3-23.7,14.1a39.1,39.1,0,0,0-2.7,9.7c-1.3,7.4-2.5,14.4-15,18.6a11.4,11.4,0,0,0-8,9.8c-.2,2.5.7,4.4,2.4,5.3a1.1,1.1,0,0,1,.5,1.4,1.2,1.2,0,0,1-1.5.5c-2.4-1.3-3.8-4-3.6-7.3a13.6,13.6,0,0,1,9.6-11.7c11.3-3.9,12.3-9.9,13.5-16.9a37.8,37.8,0,0,1,2.9-10.4c5.1-10.6,17.2-16,25.8-15.2,5.2.5,8.8,3.2,9.8,7.4,1.5,5.9-2.2,8.3-6.8,11.4s-10.4,6.8-14.6,15.6c-14.7,30.8-22,32.7-34.1,29.6Z" style="fill: #b0b4ff"/>
    <path id="Neck" d="M188.7,160.9a2.6,2.6,0,0,1-2-1l-43.2-55.5a2.5,2.5,0,0,1,.5-3.5,2.4,2.4,0,0,1,3.5.4l43.2,55.5a2.4,2.4,0,0,1-.5,3.5A2.2,2.2,0,0,1,188.7,160.9Z" style="fill: #ffc619"/>
    <path id="End" d="M209.6,189.5h-.8l-.8-.2-.7-.4-.7-.6a3.9,3.9,0,0,1-1.2-3,2.5,2.5,0,0,1,.1-.8,2.4,2.4,0,0,1,.2-.8,2.5,2.5,0,0,1,.4-.7l.5-.7.7-.5.7-.4.8-.2h1.7l.7.2.8.4.6.5.6.7.3.7.3.8c0,.3.1.6.1.8a4,4,0,0,1-1.3,3l-.6.6-.8.4-.7.2Z" style="fill: #ffc619"/>
    <path id="String_End" data-name="String End" d="M211.2,186.4a1,1,0,0,1-.7-1.2,1.1,1.1,0,0,1,1.3-.8,13.7,13.7,0,0,0,3.1.2,1.2,1.2,0,0,1,1.2,1,1,1,0,0,1-.9,1.1,16.9,16.9,0,0,1-3.9-.2Z" style="fill: #b0b4ff"/>
    <path id="Ring" d="M194.5,192.7a17.4,17.4,0,0,1-10.7-31.2l9.2-7.2a17.4,17.4,0,0,1,21.4,27.5l-9.2,7.2A17.4,17.4,0,0,1,194.5,192.7Zm9.1-36.9a12.3,12.3,0,0,0-7.5,2.5l-9.2,7.2A12.3,12.3,0,1,0,202,185l9.2-7.2a12.3,12.3,0,0,0-7.6-22Z" style="fill: #ffc619"/>
    <path id="Tip" d="M142.9,102a2.9,2.9,0,0,1-1.8-.7l-.3-.4-.3-.5c0-.1-.1-.3-.1-.4a1.1,1.1,0,0,1-.1-.5.7.7,0,0,1,.1-.5,4.3,4.3,0,0,1,.1-.5l.3-.5.3-.3a.8.8,0,0,1,.4-.4l.4-.2h2l.4.2.4.4.3.3c.1.2.2.3.2.5s.1.3.2.5v1c-.1.1-.1.3-.2.4s-.1.3-.2.5l-.3.4A3.1,3.1,0,0,1,142.9,102Z" style="fill: #ffc619"/>
    <path id="Round_3" data-name="Round 3" d="M183.4,161.9a2.6,2.6,0,0,1-2-1,2.6,2.6,0,0,1,.4-3.6l7.6-5.9a2.5,2.5,0,0,1,3.5.5,2.6,2.6,0,0,1-.4,3.6l-7.5,5.8A2.5,2.5,0,0,1,183.4,161.9Z" style="fill: #ffc619"/>
    <path id="Round_2" data-name="Round 2" d="M182.7,156.3a2.5,2.5,0,0,1-2-1,2.5,2.5,0,0,1,.5-3.5l3-2.4a2.5,2.5,0,0,1,3.5.5,2.4,2.4,0,0,1-.4,3.5l-3,2.4A3,3,0,0,1,182.7,156.3Z" style="fill: #ffc619"/>
    <path id="Round_1" data-name="Round 1" d="M164.5,132.9a2.6,2.6,0,0,1-2-1,2.6,2.6,0,0,1,.4-3.6l3-2.3a2.6,2.6,0,0,1,3.6.4,2.5,2.5,0,0,1-.5,3.6l-2.9,2.3A2.7,2.7,0,0,1,164.5,132.9Z" style="fill: #ffc619"/>
    <path id="Clyde" d="M154.2,117.5a17.6,17.6,0,0,0-1.8-4.7l-1.4.2a21.8,21.8,0,0,0-3.3-4.2,3.4,3.4,0,0,0,.6-1.2,16.9,16.9,0,0,0-4.1-2.9,19.3,19.3,0,0,0-12.6,5.4,20.9,20.9,0,0,0,1.3,6.5,19.7,19.7,0,0,0,2.4-.3,14.2,14.2,0,0,1-.5-2.2l.6.2a13.8,13.8,0,0,0,7.3,9.3v.6a7.5,7.5,0,0,1-2-1,20.9,20.9,0,0,0-.8,2.3,18.3,18.3,0,0,0,6,2.8A20.1,20.1,0,0,0,154.2,117.5Zm-15.7-3a2.3,2.3,0,0,1,.5-3.1,2.3,2.3,0,0,1,3.2.2,2.2,2.2,0,0,1-.6,3.1A2.2,2.2,0,0,1,138.5,114.5Zm4.7,6.1a2.3,2.3,0,0,1,.6-3.1,2.2,2.2,0,0,1,3.1.3,2.3,2.3,0,0,1-.5,3.1A2.3,2.3,0,0,1,143.2,120.6Z" style="fill: #ffc619"/>
    <g id="Shadows">
      <rect id="Shadow_6" data-name="Shadow 6" x="142.6" y="101" width="3.3" height="0.42" transform="translate(-31.8 109.5) rotate(-37.8)" style="fill: #ea882f"/>
      <rect id="Shadow_5" data-name="Shadow 5" x="161.8" y="126.8" width="5.1" height="0.42" transform="translate(-43.4 127.4) rotate(-37.8)" style="fill: #ea882f"/>
      <rect id="Shadow_4" data-name="Shadow 4" x="165.1" y="131.1" width="5.1" height="0.42" transform="translate(-45.3 130.5) rotate(-37.9)" style="fill: #ea882f"/>
      <rect id="Shadow_3" data-name="Shadow 3" x="180" y="150.3" width="5.1" height="0.42" transform="translate(-53.9 143.7) rotate(-37.9)" style="fill: #ea882f"/>
      <rect id="Shadow_2" data-name="Shadow 2" x="181.8" y="154" width="7.3" height="0.42" transform="translate(-55.6 146.3) rotate(-37.8)" style="fill: #ea882f"/>
      <rect id="Shadow_1" data-name="Shadow 1" x="181.5" y="157.5" width="13.6" height="0.42" transform="translate(-57.2 149) rotate(-37.9)" style="fill: #ea882f"/>
    </g>
    <g id="Highlights">
      <path id="Highlight_4" data-name="Highlight 4" d="M176.3,141.3a.5.5,0,0,1-.5-.3l-6.4-8.2a.6.6,0,1,1,1-.8l6.4,8.3a.6.6,0,0,1-.1.9Z" style="fill: #ffe75c"/>
      <path id="Highlight_3" data-name="Highlight 3" d="M158.1,117.8a.5.5,0,0,1-.5-.3L146.2,103a.6.6,0,1,1,1-.8l11.4,14.6c.2.2.1.6-.1.9Z" style="fill: #ffe75c"/>
      <path id="Highlight_2" data-name="Highlight 2" d="M192.3,153.5l-.4-.2a.8.8,0,0,1-.2-.5h.2a.6.6,0,0,1,.9,0,.6.6,0,0,1,0,.9Z" style="fill: #ffe75c"/>
      <path id="Highlight_1" data-name="Highlight 1" d="M218.5,170h-.1a.7.7,0,0,1-.6-.7,14.7,14.7,0,0,0-1.3-7.4,13.7,13.7,0,0,0-5.2-5.9.5.5,0,0,1-.3-.8.6.6,0,0,1,.8-.3,13.3,13.3,0,0,1,5.9,6.5,16.6,16.6,0,0,1,1.4,8.1A.6.6,0,0,1,218.5,170Z" style="fill: #ffe75c"/>
    </g>
  </g>
  <g id="Suitcase_Front" data-name="Suitcase Front">
    <path id="Front-2" data-name="Front" d="M248.7,216.8,108,179.1l1.7,30.2a5.2,5.2,0,0,0,3.7,4l125.9,38.1a9.3,9.3,0,0,0,7.3-.9l57.2-32.9a8.4,8.4,0,0,0,4.2-6l2.1-24.3Z" style="fill: #8cd9ff"/>
    <path id="Label" d="M182.4,215,165,209.9a4.8,4.8,0,0,1-3.1-5.6h0a3.9,3.9,0,0,1,4.8-3.3l17.4,5.1a4.8,4.8,0,0,1,3.1,5.6h0A3.9,3.9,0,0,1,182.4,215Z" style="fill: #66bcff"/>
    <path id="Details" d="M309.2,185.9l-4.2-1.2L252.9,210a13.2,13.2,0,0,1-9.4.8L115,175.2l-6.6,3.3a.6.6,0,0,0,.1,1.2l15.7,4.4v31c0,2.7,1.9,3.6,4.3,4.4s4.3,1.2,4.3-1.5V186.5l82.2,23v32.7c0,2.9,2,3.8,4.3,4.6s4.3,1.3,4.3-1.6V211.9l20.9,5.8a11.1,11.1,0,0,0,8.2-.8l7-3.5v28.4c0,2.8,2.1,1.9,4.6.5s4.6-2.7,4.6-5.5v-28h0l22.2-11.1v26c0,2.8,2.1,1.9,4.6.5s4.6-2.7,4.6-5.5V192.9l9.1-4.6A1.3,1.3,0,0,0,309.2,185.9Z" style="fill: #3f99f2"/>
  </g>
  <g id="Handle">
    <path id="Handle-2" data-name="Handle" d="M193,249.9h-1.1l-52.7-16.1a3.7,3.7,0,0,1-2.5-4.5l4.8-17.2a3.7,3.7,0,0,1,4.5-2.6,3.7,3.7,0,0,1,2.6,4.5l-3.8,13.8,45.7,13.9,3.8-13.6a3.6,3.6,0,0,1,4.5-2.6,3.8,3.8,0,0,1,2.6,4.6l-4.8,17.2a4.2,4.2,0,0,1-1.8,2.3A3.9,3.9,0,0,1,193,249.9Z" style="fill: #3442d9"/>
  </g>
  <g id="Magnifying_Glass" data-name="Magnifying Glass">
    <path id="Handle-3" data-name="Handle" d="M266.9,192.5c17.9-9.3,31.4-22.2,29.8-28.1s-15.6-2.9-31.4,5.6-28.4,19.8-28.9,26.2S249.4,201.7,266.9,192.5Z" style="fill: #242145"/>
    <path id="Gold" d="M304.4,160.4l-1.6-3.4c-1.2-2.5-4.6-3.2-7.4-1.6h0c-2.8,1.7-3.8,5-2.3,7.3l2,3.1c1.3,2,4.3,2.4,6.8,1h0C304.3,165.3,305.5,162.5,304.4,160.4Z" style="fill: #ffc71a"/>
    <g id="Head">
      <path id="Rim_Shadow" data-name="Rim Shadow" d="M333.5,117.3c-16.3,1.5-31.5,11.9-35.6,24.7-4.8,14.8,5.9,29.5,26.7,30.7,23.6,1.4,44.5-14.7,43.8-32.8C367.8,124.7,351.5,115.5,333.5,117.3Z"/>
      <path id="Rim" d="M333,115.5c-16.1,1.6-31.1,11.9-35.2,24.4-4.7,14.4,5.8,28.5,26.2,29.6,23.2,1.2,43.7-14.6,43.2-32.1C366.7,122.6,350.7,113.7,333,115.5Z" style="fill: #818cfa"/>
      <path id="Glass_Shadow" data-name="Glass Shadow" d="M332.4,120.4c-13,1.2-25,9.4-28,19.5s5.1,22,21,22.6c17.5.6,33.2-11.3,33.2-24.6C358.6,126.3,346.4,119.1,332.4,120.4Z" style="fill: #3442d9"/>
      <path id="Glass" d="M333.9,121.9c-13.2,1.2-25.4,9.6-28.4,19.9a16.8,16.8,0,0,0,.5,11.3c3.4,5.3,10.2,9,19.4,9.4,17.5.6,33.2-11.3,33.2-24.6a14.9,14.9,0,0,0-4.4-10.8C349.1,123.2,341.8,121.2,333.9,121.9Z" style="fill: #c9edff"/>
      <path id="Highlight_2-2" data-name="Highlight 2" d="M353.8,141.2a1,1,0,0,0-1.4-.4L325.2,157a1.1,1.1,0,0,0-.3,1.5,1.1,1.1,0,0,0,.9.5l.5-.2,27.2-16.2A1,1,0,0,0,353.8,141.2Z" style="fill: #fff"/>
      <path id="Highlight_1-2" data-name="Highlight 1" d="M334.4,147.1h.6l15.8-9.4a1.1,1.1,0,0,0-1.1-1.9l-15.8,9.4a1.1,1.1,0,0,0-.4,1.5A1.2,1.2,0,0,0,334.4,147.1Z" style="fill: #fff"/>
    </g>
  </g>
  <g id="Sparkles">
    <path id="_5" data-name="5" d="M53,50.2c-4.9-.9-13.4-5.5-13.6-24.6a1.3,1.3,0,0,0-1.3-1.3c-.7-.1-1.2.5-1.2,1.3h0c.2,21.7-9.8,23.3-14.2,24.1a1.4,1.4,0,0,0-1.2,1.4,1.5,1.5,0,0,0,1.4,1.6c4.7.6,14.6,2.6,14.9,22.5a1.4,1.4,0,0,0,1.3,1.5,1.5,1.5,0,0,0,1.5-1.6c-.3-20,8.2-21,12.7-22a1.4,1.4,0,0,0,1.2-1.7A1.6,1.6,0,0,0,53,50.2Z" style="fill: #ffe75c"/>
    <path id="_4" data-name="4" d="M66.6,78.1c-1.8-.3-4.8-1.9-4.8-8.7,0-.2-.3-.4-.5-.4a.5.5,0,0,0-.4.5h0c.1,7.6-3.5,8.2-5,8.5a.5.5,0,0,0,0,1c1.7.3,5.2,1,5.3,8a.5.5,0,0,0,1,0c-.1-7.1,2.9-7.4,4.5-7.8s.5-.3.4-.6A.6.6,0,0,0,66.6,78.1Z" style="fill: #91ffad"/>
    <path id="_3" data-name="3" d="M77.7,36.8c-3.1-.6-8.5-3.9-8.8-17a.9.9,0,0,0-.8-1,.8.8,0,0,0-.8.9h0c.3,15-6.1,16-8.9,16.5a1.2,1.2,0,0,0-.8,1,1.2,1.2,0,0,0,1,1.1c3,.5,9.3,1.9,9.6,15.7a.9.9,0,0,0,.9,1A1,1,0,0,0,70,54c-.3-13.8,5-14.4,8-15.1a1,1,0,0,0,.7-1.2A1.1,1.1,0,0,0,77.7,36.8Z" style="fill: #ff78b9"/>
    <path id="_2" data-name="2" d="M426,124.7c-2.5-.5-6.9-3.1-7.1-13.8a.7.7,0,0,0-.7-.7c-.3-.1-.6.3-.6.7h0c.2,12.1-4.9,12.9-7.2,13.3a.9.9,0,0,0-.6.8,1,1,0,0,0,.7.9c2.5.3,7.6,1.5,7.8,12.6a.7.7,0,0,0,.7.8c.5.1.8-.3.8-.8-.3-11.2,4.1-11.7,6.4-12.2a.8.8,0,0,0,.6-1A.9.9,0,0,0,426,124.7Z" style="fill: #ff78b9"/>
    <path id="_1" data-name="1" d="M418.9,91.8c-4.2-.8-11.4-5.2-11.8-22.8a1.4,1.4,0,0,0-1.1-1.3,1.2,1.2,0,0,0-1.1,1.3h0c.4,20-8.1,21.4-11.8,22a1.4,1.4,0,0,0-1,1.3,1.4,1.4,0,0,0,1.2,1.5c4,.6,12.4,2.5,12.8,20.9a1.3,1.3,0,0,0,1.2,1.4,1.3,1.3,0,0,0,1.2-1.5c-.4-18.4,6.8-19.2,10.7-20.1a1.4,1.4,0,0,0,1-1.6A1.5,1.5,0,0,0,418.9,91.8Z" style="fill: #91ffad"/>
  </g>
</svg>
