<?xml version="1.0" encoding="UTF-8"?>
<svg xmlns="http://www.w3.org/2000/svg" xmlns:xlink="http://www.w3.org/1999/xlink" viewBox="0 0 1800 720">
  <defs>
    <linearGradient id="linear-gradient" x1="900" y1="-62.7" x2="900" y2="962" gradientUnits="userSpaceOnUse">
      <stop offset="0" stop-color="#5864f2"/>
      <stop offset=".5" stop-color="#3f4be0"/>
      <stop offset=".8" stop-color="#3541d9"/>
    </linearGradient>
    <clipPath id="clippath">
      <rect width="1800" height="720" style="fill: none;"/>
    </clipPath>
    <clipPath id="clippath-1">
      <path d="m1324.5,168.7c-22.9,0-41.6-18.7-41.6-41.6s18.7-41.6,41.6-41.6,41.6,18.7,41.6,41.6-18.7,41.6-41.6,41.6Zm0-80.2c-21.3,0-38.6,17.3-38.6,38.6s17.3,38.6,38.6,38.6,38.6-17.3,38.6-38.6-17.3-38.6-38.6-38.6Zm0,59.8c-11.7,0-21.2-9.5-21.2-21.2s9.5-21.2,21.2-21.2,21.2,9.5,21.2,21.2-9.5,21.2-21.2,21.2Zm0-39.5c-10,0-18.2,8.2-18.2,18.2s8.2,18.2,18.2,18.2,18.2-8.2,18.2-18.2-8.2-18.2-18.2-18.2Z" style="fill: #8c94f1;"/>
    </clipPath>
  </defs>
  <g style="fill: none; isolation: isolate;">
    <g id="background">
      <rect width="1800" height="720" style="fill: url(#linear-gradient); isolation: isolate;"/>
      <g style="clip-path: url(#clippath); fill: none;">
        <g style="fill: none; mix-blend-mode: screen; opacity: .1;">
          <path d="m2009.7,782H-209.7V-62H2009.7v844Zm-2216.3-3H2006.7V-59H-206.7v838Z" style="fill: #769db0;"/>
          <rect x="-208.2" y="685.6" width="2216.3" height="3" style="fill: #769db0;"/>
          <rect x="-208.2" y="592.1" width="2216.3" height="3" style="fill: #769db0;"/>
          <rect x="-208.2" y="498.7" width="2216.3" height="3" style="fill: #769db0;"/>
          <rect x="-208.2" y="405.2" width="2216.3" height="3" style="fill: #769db0;"/>
          <rect x="-208.2" y="311.8" width="2216.3" height="3" style="fill: #769db0;"/>
          <rect x="-208.2" y="218.3" width="2216.3" height="3" style="fill: #769db0;"/>
          <rect x="-208.2" y="124.9" width="2216.3" height="3" style="fill: #769db0;"/>
          <rect x="-208.2" y="31.4" width="2216.3" height="3" style="fill: #769db0;"/>
          <rect x="1665.7" y="-60.5" width="3" height="841" style="fill: #769db0;"/>
          <rect x="1495.2" y="-60.5" width="3" height="841" style="fill: #769db0;"/>
          <rect x="1324.7" y="-60.5" width="3" height="841" style="fill: #769db0;"/>
          <rect x="1154.2" y="-60.5" width="3" height="841" style="fill: #769db0;"/>
          <rect x="983.7" y="-60.5" width="3" height="841" style="fill: #769db0;"/>
          <rect x="813.3" y="-60.5" width="3" height="841" style="fill: #769db0;"/>
          <rect x="642.8" y="-60.5" width="3" height="841" style="fill: #769db0;"/>
          <rect x="472.3" y="-60.5" width="3" height="841" style="fill: #769db0;"/>
          <rect x="301.8" y="-60.5" width="3" height="841" style="fill: #769db0;"/>
          <rect x="131.3" y="-60.5" width="3" height="841" style="fill: #769db0;"/>
        </g>
      </g>
    </g>
    <g id="Generic">
      <g style="fill: none; opacity: .8;">
        <rect x="683.5" y="142.9" width="433" height="433" rx="140.6" ry="140.6"/>
        <path d="m1059.5,720.1c-39.6-43.1-96.4-70.1-159.5-70.1s-119.9,27-159.5,70.1h319Z"/>
        <path d="m741.7,0c39.5,42.4,95.8,68.9,158.3,68.9s118.8-26.5,158.4-68.9h-316.7Z"/>
      </g>
      <path d="m988.9,279.2c-16.8-7.7-34.6-13.2-52.8-16.3-2.5,4.5-4.8,9.1-6.8,13.8-19.4-2.9-39.2-2.9-58.6,0-2-4.7-4.3-9.3-6.8-13.8-18.3,3.1-36,8.6-52.9,16.3-33.4,49.5-42.5,97.7-38,145.3h0c19.6,14.5,41.5,25.5,64.8,32.5,5.2-7.1,9.9-14.5,13.9-22.4-7.6-2.8-14.9-6.3-21.9-10.4,1.8-1.3,3.6-2.7,5.4-4,41,19.3,88.5,19.3,129.6,0,1.8,1.4,3.5,2.8,5.4,4-7,4.1-14.3,7.6-21.9,10.5,4,7.8,8.6,15.3,13.9,22.4,23.3-7,45.3-18,64.8-32.5h0c5.3-55.2-9.1-103-38.1-145.4Zm-131.5,116.1c-12.6,0-23.1-11.5-23.1-25.6s10.1-25.7,23-25.7,23.3,11.6,23.1,25.7c-.2,14.1-10.2,25.6-23,25.6Zm85.1,0c-12.7,0-23-11.5-23-25.6s10.1-25.7,23-25.7,23.2,11.6,23,25.7c-.2,14.1-10.2,25.6-23,25.6Z" style="fill: #fff;"/>
      <g>
        <g>
          <rect x="1231.5" y="60.5" width="185.4" height="133.2" rx="16.4" ry="16.4" style="fill: #3b45dd;"/>
          <path d="m1400.6,195.3h-152.7c-9.9,0-17.9-8-17.9-17.9v-100.5c0-9.9,8-17.9,17.9-17.9h152.7c9.9,0,17.9,8,17.9,17.9v100.5c0,9.9-8,17.9-17.9,17.9Zm-152.7-133.2c-8.2,0-14.9,6.7-14.9,14.9v100.5c0,8.2,6.7,14.9,14.9,14.9h152.7c8.2,0,14.9-6.7,14.9-14.9v-100.5c0-8.2-6.7-14.9-14.9-14.9h-152.7Z" style="fill: #5765f1;"/>
        </g>
        <g>
          <path d="m1324.5,168.7c-22.9,0-41.6-18.7-41.6-41.6s18.7-41.6,41.6-41.6,41.6,18.7,41.6,41.6-18.7,41.6-41.6,41.6Zm0-80.2c-21.3,0-38.6,17.3-38.6,38.6s17.3,38.6,38.6,38.6,38.6-17.3,38.6-38.6-17.3-38.6-38.6-38.6Zm0,59.8c-11.7,0-21.2-9.5-21.2-21.2s9.5-21.2,21.2-21.2,21.2,9.5,21.2,21.2-9.5,21.2-21.2,21.2Zm0-39.5c-10,0-18.2,8.2-18.2,18.2s8.2,18.2,18.2,18.2,18.2-8.2,18.2-18.2-8.2-18.2-18.2-18.2Z" style="fill: #8c94f1;"/>
          <g style="clip-path: url(#clippath-1); fill: none;">
            <polygon points="1351.4 179.8 1323.6 128.6 1273.5 128.6 1273.5 125.6 1323.7 125.6 1359 76.8 1361.4 78.6 1326.2 127.3 1354.1 178.3 1351.4 179.8" style="fill: #8c94f1;"/>
          </g>
        </g>
        <path d="m1399,176.5h-24.8v-34.9h24.8v34.9Zm-21.8-3h18.8v-28.9h-18.8v28.9Z" style="fill: #5765f1;"/>
        <path d="m1292.4,80.8h-46c-.8,0-1.5-.7-1.5-1.5s.7-1.5,1.5-1.5h46c.8,0,1.5.7,1.5,1.5s-.7,1.5-1.5,1.5Z" style="fill: #5765f1;"/>
        <path d="m1265.4,90.1h-19c-.8,0-1.5-.7-1.5-1.5s.7-1.5,1.5-1.5h19c.8,0,1.5.7,1.5,1.5s-.7,1.5-1.5,1.5Z" style="fill: #5765f1;"/>
        <path d="m1271.6,99.3h-25.2c-.8,0-1.5-.7-1.5-1.5s.7-1.5,1.5-1.5h25.2c.8,0,1.5.7,1.5,1.5s-.7,1.5-1.5,1.5Z" style="fill: #5765f1;"/>
      </g>
      <g>
        <g>
          <rect x="1231.5" y="236.7" width="185.4" height="133.2" rx="16.4" ry="16.4" style="fill: #3b45dd;"/>
          <path d="m1400.6,371.4h-152.7c-9.9,0-17.9-8-17.9-17.9v-100.5c0-9.9,8-17.9,17.9-17.9h152.7c9.9,0,17.9,8,17.9,17.9v100.5c0,9.9-8,17.9-17.9,17.9Zm-152.7-133.2c-8.2,0-14.9,6.7-14.9,14.9v100.5c0,8.2,6.7,14.9,14.9,14.9h152.7c8.2,0,14.9-6.7,14.9-14.9v-100.5c0-8.2-6.7-14.9-14.9-14.9h-152.7Z" style="fill: #5765f1;"/>
        </g>
        <g>
          <rect x="1289.1" y="315.3" width="13" height="41.1" rx="1" ry="1" style="fill: #5765f1;"/>
          <rect x="1308.6" y="278.2" width="13" height="78.2" rx="1" ry="1" style="fill: #5765f1;"/>
          <rect x="1367.2" y="294.1" width="13" height="62.3" rx="1" ry="1" style="fill: #5765f1;"/>
          <rect x="1347.7" y="246" width="13" height="110.4" rx="1" ry="1" style="fill: #8c94f1;"/>
          <rect x="1328.2" y="297.4" width="13" height="59" rx="1" ry="1" style="fill: #8c94f1;"/>
          <rect x="1386.8" y="323.8" width="13" height="32.6" rx="1" ry="1" style="fill: #5765f1;"/>
        </g>
      </g>
      <g>
        <g>
          <rect x="380.8" y="433.9" width="185.4" height="133.2" rx="16.4" ry="16.4" style="fill: #3b45dd;"/>
          <path d="m549.8,568.6h-152.7c-9.9,0-17.9-8-17.9-17.9v-100.5c0-9.9,8-17.9,17.9-17.9h152.7c9.9,0,17.9,8,17.9,17.9v100.5c0,9.9-8,17.9-17.9,17.9Zm-152.7-133.2c-8.2,0-14.9,6.7-14.9,14.9v100.5c0,8.2,6.7,14.9,14.9,14.9h152.7c8.2,0,14.9-6.7,14.9-14.9v-100.5c0-8.2-6.7-14.9-14.9-14.9h-152.7Z" style="fill: #5765f1;"/>
        </g>
        <g>
          <path d="m502.9,551.8h-61.1c-1.9,0-3.5-1.2-4.1-3l-17.8-58.1c-.5-1.8.1-3.7,1.6-4.8l50.2-36c1.5-1.1,3.5-1.1,5.1,0l48.7,35.9c1.5,1.1,2.1,3.1,1.5,4.9l-20,58.2c-.6,1.7-2.2,2.9-4.1,2.9Zm-28.8-99.2c-.2,0-.4,0-.5.2l-50.2,36c-.3.2-.4.6-.3,1l17.8,58.1c.1.4.5.6.9.6h61.1c.4,0,.7-.2.8-.6l20-58.2c.1-.4,0-.8-.3-1l-48.7-35.9c-.2-.1-.3-.2-.5-.2Z" style="fill: #5765f1;"/>
          <path d="m524.9,487.7l-.6-.5-51.9,13,3.3-48.7-.4-.3c-.8-.6-2-.4-3.1.3h0s-3.3,48.4-3.3,48.4l-46.2-12.9c-1.1.8-1.7,2.1-1.4,3.1v.3c.1,0,46.6,13,46.6,13l-28.8,44.8.2.7c.2.7.9,1.1,1.7,1.1h.4l28.8-44.8,32,44.8c1.3,0,2.7-1,3.2-2.3l-31.9-44.7,51.7-13v-.3c.4-.9.2-1.7-.4-2.2Z" style="fill: #5765f1;"/>
          <g style="fill: none; opacity: .2;">
            <polygon points="473.1 463.3 454.9 497.7 446.3 540.2 488.5 527.1 509.1 492.9 473.1 463.3" style="fill: #fff;"/>
            <path d="m444.3,542.3l9.2-45.2,19.2-36.2,38.4,31.6-21.5,35.7-45.2,14Zm12-44.1l-8.1,39.8,39.3-12.2,19.6-32.5-33.5-27.6-17.2,32.6Z" style="fill: #fff;"/>
          </g>
          <ellipse cx="473.1" cy="463.3" rx="5" ry="3.6" transform="translate(-187.4 416.3) rotate(-40.3)" style="fill: #8c94f1;"/>
          <ellipse cx="509.1" cy="492.9" rx="5" ry="3.6" transform="translate(-198 446.6) rotate(-40.3)" style="fill: #8c94f1;"/>
          <ellipse cx="488.5" cy="527.1" rx="5" ry="3.6" transform="translate(-225 441.4) rotate(-40.3)" style="fill: #8c94f1;"/>
          <ellipse cx="446.3" cy="540.2" rx="5" ry="3.6" transform="translate(-243.5 417.2) rotate(-40.3)" style="fill: #8c94f1;"/>
          <ellipse cx="454.9" cy="497.7" rx="5" ry="3.6" transform="translate(-214 412.7) rotate(-40.3)" style="fill: #8c94f1;"/>
        </g>
      </g>
      <g>
        <g>
          <rect x="380.8" y="247.9" width="185.4" height="133.2" rx="16.4" ry="16.4" style="fill: #3b45dd;"/>
          <path d="m549.8,382.6h-152.7c-9.9,0-17.9-8-17.9-17.9v-100.5c0-9.9,8-17.9,17.9-17.9h152.7c9.9,0,17.9,8,17.9,17.9v100.5c0,9.9-8,17.9-17.9,17.9Zm-152.7-133.2c-8.2,0-14.9,6.7-14.9,14.9v100.5c0,8.2,6.7,14.9,14.9,14.9h152.7c8.2,0,14.9-6.7,14.9-14.9v-100.5c0-8.2-6.7-14.9-14.9-14.9h-152.7Z" style="fill: #5765f1;"/>
        </g>
        <g>
          <path d="m440.6,290.9h65.8c12.1,0,21.9,9.8,21.9,21.9h0c0,12.1-9.8,21.9-21.9,21.9h-65.8c-12.1,0-21.9-9.8-21.9-21.9h0c0-12.1,9.8-21.9,21.9-21.9Z" style="fill: #5765f1;"/>
          <circle cx="446.1" cy="312.8" r="11" style="fill: #8c94f1; opacity: .5;"/>
          <circle cx="473.5" cy="312.8" r="11" style="fill: #8c94f1;"/>
          <circle cx="500.9" cy="312.8" r="11" style="fill: #8c94f1; opacity: .5;"/>
        </g>
        <path d="m538.8,340l-19-15.6c-1.1-.9-2.8-.1-2.8,1.3v24.6c0,1.2,1.3,2.1,2.4,1.5l6.9-3.3,5.5,11.7c.2.5.9.7,1.4.5l3.3-1.6c.5-.2.7-.9.5-1.4l-5.5-11.7,6.9-3.3c1.1-.5,1.3-2.1.4-2.8Z" style="fill: #8c94f1;"/>
      </g>
    </g>
  </g>
</svg>