<?xml version="1.0" encoding="UTF-8"?>
<svg xmlns="http://www.w3.org/2000/svg" viewBox="0 0 580 364">
  <g id="Layer_25" data-name="Layer 25">
    <g>
      <rect x="476.36" y="203.27" width="62.24" height="62.24" rx="6" ry="6" style="fill: #242145;"/>
      <path d="m535.6,206.27v50.23c0,3.32-2.69,6-6,6h-50.24c-3.31,0-6-2.68-6-6v-50.23c0-3.32,2.69-6,6-6h50.24c3.31,0,6,2.68,6,6Z" style="fill: #91ffad;"/>
      <g>
        <rect x="473.36" y="255.2" width="62.24" height="1" style="fill: #57f287;"/>
        <rect x="473.36" y="243.04" width="62.24" height="1" style="fill: #57f287;"/>
        <rect x="473.36" y="230.89" width="62.24" height="1" style="fill: #57f287;"/>
        <rect x="473.36" y="218.73" width="62.24" height="1" style="fill: #57f287;"/>
        <rect x="473.36" y="206.57" width="62.24" height="1" style="fill: #57f287;"/>
        <rect x="528.29" y="200.27" width="1" height="62.23" style="fill: #57f287;"/>
        <rect x="516.14" y="200.27" width="1" height="62.23" style="fill: #57f287;"/>
        <rect x="503.98" y="200.27" width="1" height="62.23" style="fill: #57f287;"/>
        <rect x="491.82" y="200.27" width="1" height="62.23" style="fill: #57f287;"/>
        <rect x="479.66" y="200.27" width="1" height="62.23" style="fill: #57f287;"/>
      </g>
    </g>
    <path d="m531.2,146.5h-17.29c-.28,0-.5-.22-.5-.5v-8.66h-28.53c-.28,0-.5-.22-.5-.5s.22-.5.5-.5h29.03c.28,0,.5.22.5.5v8.66h16.79c.28,0,.5.22.5.5s-.22.5-.5.5Z" style="fill: #242145;"/>
    <path d="m532.5,107.12h-34.48c-.28,0-.5-.22-.5-.5s.22-.5.5-.5h34.48c.28,0,.5.22.5.5s-.22.5-.5.5Z" style="fill: #242145;"/>
    <path d="m519.27,66.31h-21.25c-.28,0-.5-.22-.5-.5s.22-.5.5-.5h20.75v-13.66c0-.28.22-.5.5-.5h17.29c.28,0,.5.22.5.5s-.22.5-.5.5h-16.79v13.66c0,.28-.22.5-.5.5Z" style="fill: #242145;"/>
    <path d="m435.91,199.84h-48.97c-.28,0-.5-.22-.5-.5s.22-.5.5-.5h48.47v-19.51c0-.28.22-.5.5-.5s.5.22.5.5v20.01c0,.28-.22.5-.5.5Z" style="fill: #242145;"/>
    <path d="m459.86,179.83h-47.9c-.28,0-.5-.22-.5-.5v-7.69c0-.28.22-.5.5-.5s.5.22.5.5v7.19h46.9v-7.19c0-.28.22-.5.5-.5s.5.22.5.5v7.69c0,.28-.22.5-.5.5Z" style="fill: #242145;"/>
    <path d="m332.94,310.97h-42.37c-.28,0-.5-.22-.5-.5v-38.24c0-.28.22-.5.5-.5s.5.22.5.5v37.74h41.87c.28,0,.5.22.5.5s-.22.5-.5.5Z" style="fill: #242145;"/>
    <path d="m208.02,217.02h-127.16c-.28,0-.5-.22-.5-.5v-13.21h-23.35c-.28,0-.5-.22-.5-.5v-64.99c0-.28.22-.5.5-.5s.5.22.5.5v64.49h23.35c.28,0,.5.22.5.5v13.21h126.66c.28,0,.5.22.5.5s-.22.5-.5.5Z" style="fill: #242145;"/>
    <path d="m130.21,258.65h-21.54c-.28,0-.5-.22-.5-.5s.22-.5.5-.5h21.04v-41.13c0-.28.22-.5.5-.5s.5.22.5.5v41.63c0,.28-.22.5-.5.5Z" style="fill: #242145;"/>
    <rect x="80.05" y="118.65" width="105.18" height="61.95" rx="6" ry="6" style="fill: #242145;"/>
    <g>
      <rect x="77.05" y="115.65" width="105.18" height="61.95" rx="6" ry="6" style="fill: #8cd9ff;"/>
      <g>
        <rect x="90.12" y="115.65" width="1" height="61.95" style="fill: #66bcff;"/>
        <rect x="116.13" y="115.65" width="1" height="61.95" style="fill: #66bcff;"/>
        <rect x="142.14" y="115.65" width="1" height="61.95" style="fill: #66bcff;"/>
        <rect x="168.16" y="115.65" width="1" height="61.95" style="fill: #66bcff;"/>
        <g>
          <rect x="77.05" y="161.49" width="105.18" height="1" style="fill: #66bcff;"/>
          <rect x="77.05" y="130.76" width="105.18" height="1" style="fill: #66bcff;"/>
        </g>
      </g>
    </g>
    <rect x="529.1" y="136.75" width="33.36" height="18.45" rx="2.53" ry="2.53" style="fill: #57f287;"/>
    <rect x="525.19" y="97.4" width="26.36" height="18.45" rx="2.53" ry="2.53" style="fill: #ff78b9;"/>
    <path d="m433.11,16.54c-40.38,0-73.12,32.74-73.12,73.12s32.74,73.12,73.12,73.12,73.12-32.74,73.12-73.12-32.74-73.12-73.12-73.12Zm0,93.96c-11.51,0-20.84-9.33-20.84-20.84s9.33-20.84,20.84-20.84,20.84,9.33,20.84,20.84-9.33,20.84-20.84,20.84Z" style="fill: #3f99f2;"/>
    <path d="m506.21,88.21l-52.27,1.04c0-.05,0-.09-.01-.14,0-.21-.01-.42-.02-.63-.03-.5-.07-1.01-.14-1.5-.03-.25-.07-.5-.11-.75-.06-.42-.14-.84-.24-1.25-.18-.79-.41-1.57-.68-2.32-.05-.15-.11-.3-.16-.45-.09-.22-.18-.44-.27-.66-.08-.2-.17-.4-.27-.6-.12-.29-.26-.57-.41-.85-.02-.05-.05-.1-.07-.15-.11-.2-.21-.4-.33-.59-.12-.21-.24-.41-.36-.62-.16-.24-.31-.49-.48-.73-.18-.28-.37-.55-.58-.82-.2-.27-.4-.53-.62-.79-.16-.19-.32-.38-.48-.57-.16-.17-.31-.34-.47-.5-.16-.17-.33-.34-.5-.51-.32-.31-.64-.62-.98-.9-.15-.14-.29-.26-.44-.38-.24-.2-.49-.39-.74-.58,0,0-.01,0-.01-.01-.27-.19-.54-.39-.81-.57-.52-.35-1.06-.68-1.61-.99-.21-.11-.42-.22-.64-.33-.2-.11-.4-.21-.61-.3-.01,0-.03,0-.04-.02l21.96-47.45c.77.36,1.53.73,2.29,1.11.62.31,1.24.64,1.85.97.05.03.1.05.14.08.27.14.54.29.8.44.36.2.7.4,1.05.6.34.2.67.4,1,.6.65.39,1.29.79,1.93,1.21.62.39,1.22.8,1.82,1.22.05.03.1.07.15.1.67.46,1.33.94,1.98,1.43.01.01.02.01.03.02.58.43,1.14.87,1.7,1.32.18.13.36.28.54.44.53.41,1.05.84,1.56,1.29.55.47,1.1.95,1.64,1.45.34.31.68.62,1.01.94.15.13.3.27.44.41.36.34.71.69,1.06,1.04.42.41.83.83,1.23,1.26.3.31.6.63.89.96.19.19.36.38.53.57.21.24.43.48.65.73.48.55.95,1.1,1.42,1.67.45.54.89,1.09,1.31,1.65.18.22.35.44.52.67.43.55.84,1.12,1.25,1.69.46.65.92,1.3,1.36,1.97.6.89,1.17,1.79,1.72,2.71.29.46.56.93.84,1.41,1.47,2.56,2.79,5.21,3.95,7.95.21.49.41.99.62,1.49.02.06.04.11.06.16.21.55.43,1.11.63,1.67.19.51.37,1.02.54,1.53.03.08.06.17.09.25.18.54.35,1.08.52,1.62.18.57.35,1.15.51,1.72.14.48.27.96.4,1.45.06.22.11.44.17.66.11.43.21.86.32,1.3,0,.08.03.15.04.22.13.55.25,1.1.36,1.65.25,1.23.47,2.48.67,3.73.08.56.16,1.13.23,1.7.08.66.16,1.32.22,1.98.05.45.09.9.13,1.35.08,1.05.14,2.12.18,3.18.02.45.03.9.04,1.35Z" style="fill: #66bcff;"/>
    <path d="m506.23,89.66c0,.69-.01,1.38-.03,2.06-.01.41-.02.82-.05,1.23-.02.51-.04,1.01-.08,1.51-.03.57-.08,1.15-.13,1.72-.01.16-.03.31-.04.47-.06.61-.12,1.22-.2,1.82,0,.07-.01.14-.03.21-.08.71-.17,1.41-.28,2.11-.1.65-.21,1.3-.32,1.94-.07.35-.13.69-.21,1.03-.07.44-.16.86-.26,1.29,0,.06-.02.12-.04.17-.14.67-.29,1.32-.45,1.98-.01.05-.02.09-.04.14-.16.67-.34,1.33-.53,2-.21.79-.45,1.59-.7,2.38-.19.6-.39,1.2-.6,1.8-.23.68-.47,1.35-.73,2.02-.24.65-.5,1.3-.77,1.94-.01.04-.03.09-.05.13-.18.44-.36.88-.56,1.31-.36.85-.75,1.69-1.15,2.52-.3.61-.6,1.21-.91,1.81-.02.03-.03.07-.05.1l-46.41-24.09c.18-.34.35-.69.51-1.05.02-.04.04-.08.05-.13.15-.32.28-.65.41-.98.01-.02.02-.05.03-.08.12-.3.23-.61.32-.93.19-.56.35-1.13.48-1.71.06-.23.11-.46.15-.7.05-.22.08-.44.12-.66.02-.11.04-.23.05-.35.04-.26.08-.53.1-.79.02-.12.03-.24.03-.37.03-.23.05-.47.05-.71.03-.38.04-.76.04-1.14,0-.14,0-.28-.01-.41l52.27-1.04c.02.48.02.97.02,1.45Z" style="fill: #8cd9ff;"/>
    <path d="m498.02,123.35c-.05.1-.11.21-.17.31-.22.44-.46.88-.71,1.31-.16.31-.33.61-.5.9-.66,1.18-1.37,2.33-2.11,3.47-.19.3-.39.6-.58.89-.35.52-.7,1.03-1.06,1.54-.39.56-.78,1.1-1.19,1.64-.03.04-.06.08-.09.12-.25.33-.5.66-.76.98-.11.16-.23.31-.36.47-.29.37-.59.74-.89,1.1-.76.94-1.56,1.85-2.38,2.75-.36.4-.73.8-1.11,1.19-.06.08-.14.16-.21.23-.36.37-.72.74-1.09,1.11-.43.43-.86.86-1.3,1.26-.29.28-.58.55-.87.82-.46.43-.93.85-1.4,1.26-.53.47-1.07.93-1.62,1.38-.75.63-1.52,1.24-2.31,1.83-.4.3-.8.6-1.21.9-.91.66-1.83,1.31-2.78,1.92-.47.32-.94.62-1.42.91-.29.19-.58.38-.88.55-.42.26-.84.51-1.27.75-.16.1-.32.2-.49.28-.43.25-.86.49-1.3.73-.43.24-.86.47-1.3.69-.71.37-1.43.73-2.16,1.07-.37.18-.75.36-1.13.53-.59.27-1.19.54-1.8.79-.47.2-.94.39-1.42.58-1.03.42-2.07.81-3.13,1.17-.35.12-.7.24-1.06.35-1.31.44-2.64.84-3.99,1.19-.32.09-.64.17-.96.25-.58.15-1.16.29-1.74.41-.47.11-.95.22-1.42.31-.54.11-1.08.22-1.62.32-.48.08-.97.17-1.46.24-.28.05-.56.09-.85.13-.5.08-1,.15-1.5.21-.61.08-1.22.15-1.83.21-.39.04-.79.08-1.19.11-.35.03-.69.06-1.04.08-.08.01-.16.02-.24.02-.79.05-1.58.1-2.38.12-.04.01-.09.01-.14,0-.32.02-.64.03-.97.03-.5.01-1.01.02-1.52.02-.69,0-1.37-.01-2.06-.03-.56-.01-1.13-.04-1.7-.07-.43-.02-.86-.04-1.29-.08-.29-.01-.57-.03-.85-.05-.63-.06-1.26-.11-1.88-.18-.3-.03-.59-.06-.89-.11-.41-.04-.83-.09-1.24-.15-.14-.01-.27-.03-.41-.06-.54-.07-1.08-.15-1.62-.24-.12-.02-.24-.04-.36-.06-.39-.07-.78-.14-1.16-.21-.4-.07-.79-.15-1.19-.23-.49-.1-.98-.2-1.47-.32-.61-.13-1.21-.28-1.81-.43-.4-.1-.8-.2-1.19-.31-.3-.08-.6-.16-.9-.25-.72-.2-1.43-.41-2.14-.65-1-.31-2-.65-2.98-1.01-.18-.06-.35-.13-.52-.2-.49-.18-.98-.37-1.46-.56-.74-.29-1.47-.6-2.2-.92-.46-.2-.92-.41-1.38-.62-.03-.02-.05-.03-.08-.04l22.01-47.43c.37.17.75.33,1.13.48.31.13.61.24.93.34.22.08.45.15.68.22.26.08.52.16.79.22.27.08.55.14.82.2.2.04.39.08.59.11.2.05.39.08.59.11.47.07.94.13,1.41.16.25.03.51.05.76.06.36.02.71.03,1.07.03s.72-.01,1.07-.03c.36-.01.71-.04,1.06-.08.35-.03.71-.08,1.07-.13.32-.05.65-.11.97-.18h.04c.34-.07.67-.15,1-.24.3-.07.61-.16.91-.26.68-.2,1.34-.44,1.99-.72.28-.11.56-.24.84-.37.69-.33,1.37-.7,2.02-1.1.23-.14.46-.29.68-.45.28-.18.55-.37.82-.58.2-.14.39-.3.58-.46.27-.21.54-.43.8-.67.15-.13.3-.26.44-.4.17-.16.34-.33.5-.49.17-.17.33-.33.49-.51.14-.14.27-.3.4-.45.14-.15.27-.3.4-.46.19-.23.37-.46.55-.69.22-.3.44-.61.65-.92.13-.19.25-.38.37-.57.06-.08.11-.17.16-.25.11-.18.22-.37.32-.55.02-.03.03-.05.05-.08.11-.2.22-.4.32-.6l46.41,24.09Z" style="fill: #c9edff;"/>
    <path d="m424.34,108.57l-22.01,47.43c-9.8-4.55-18.41-11.21-25.27-19.39l40.07-33.57c1.96,2.33,4.42,4.23,7.21,5.53Z" style="fill: #e3f6ff;"/>
    <path d="m138.77,334.06h0c-6.5-6.5-6.13-17.16.81-23.19l71.58-64.3,15.1,15.1-64.3,71.58c-6.03,6.94-16.69,7.32-23.19.81Z" style="fill: #242145;"/>
    <path d="m294.33,276.87c-25.2,0-50.4-9.59-69.59-28.78-38.37-38.37-38.37-100.81,0-139.18,38.37-38.37,100.81-38.37,139.18,0,38.37,38.37,38.37,100.81,0,139.18h0c-19.19,19.19-44.39,28.78-69.59,28.78Zm0-176.74c-20.08,0-40.16,7.64-55.45,22.93-30.57,30.57-30.57,80.32,0,110.89,30.57,30.57,80.32,30.57,110.89,0,30.57-30.57,30.57-80.32,0-110.89-15.28-15.29-35.37-22.93-55.45-22.93Z" style="fill: #242145;"/>
    <rect x="196.62" y="244.67" width="44.19" height="18.88" rx="9.44" ry="9.44" transform="translate(243.75 -80.23) rotate(45)" style="fill: #ffc619;"/>
    <g id="_图层_2" data-name="图层 2">
      <g id="Discord_Logos" data-name="Discord Logos">
        <g id="Discord_Logo_-_Large_-_White" data-name="Discord Logo - Large - White">
          <path d="m325.23,150.44c-5.88-2.73-12.04-4.62-18.34-5.67-.84,1.54-1.68,3.15-2.38,4.76-6.72-1.05-13.65-1.05-20.37,0-.7-1.61-1.47-3.22-2.38-4.76-6.37,1.05-12.53,3.01-18.34,5.67-11.62,17.22-14.77,33.95-13.23,50.47h0c6.79,5.04,14.42,8.82,22.54,11.34,1.82-2.45,3.43-5.04,4.83-7.77-2.66-.98-5.18-2.17-7.63-3.64.63-.49,1.26-.91,1.89-1.4,14.28,6.72,30.8,6.72,45.01,0,.63.49,1.26.98,1.89,1.4-2.45,1.4-4.97,2.66-7.63,3.64,1.4,2.73,3.01,5.32,4.83,7.77,8.12-2.45,15.75-6.3,22.54-11.27h0c1.82-19.25-3.15-35.84-13.23-50.54Zm-45.64,40.32c-4.41,0-8.05-3.99-8.05-8.89s3.5-8.89,7.98-8.89,8.12,3.99,8.05,8.89-3.57,8.89-7.98,8.89Zm29.54,0c-4.41,0-7.98-3.99-7.98-8.89s3.5-8.89,7.98-8.89,8.05,3.99,7.98,8.89-3.5,8.89-7.98,8.89Z" style="fill: #fff;"/>
        </g>
      </g>
    </g>
    <rect x="328.76" y="232.92" width="177.47" height="105.79" rx="13" ry="13" style="fill: #fff;"/>
    <rect x="15.12" y="58.73" width="148.17" height="87.27" rx="13" ry="13" style="fill: #fff;"/>
    <rect x="534.47" y="42.46" width="36.36" height="18.45" rx="2.53" ry="2.53" style="fill: #57f287;"/>
    <path d="m380.99,291.27h13.42c1.67,0,3.02,1.35,3.02,3.02v26.79h-19.45v-26.79c0-1.67,1.35-3.02,3.02-3.02Z" style="fill: #57f287;"/>
    <path d="m426.65,321.08v-48.15c0-1.67-1.35-3.02-3.02-3.02h-13.42c-1.67,0-3.02,1.35-3.02,3.02v48.15" style="fill: #29cc7a;"/>
    <path d="m455.88,321.08v-66.78c0-1.67-1.35-3.02-3.02-3.02h-13.42c-1.67,0-3.02,1.35-3.02,3.02v66.78" style="fill: #57f287;"/>
    <path d="m485.11,321.08v-34.9c0-1.67-1.35-3.02-3.02-3.02h-13.42c-1.67,0-3.02,1.35-3.02,3.02v34.9" style="fill: #91ffad;"/>
    <path d="m492.02,322.58h-120.96c-.83,0-1.5-.67-1.5-1.5s.67-1.5,1.5-1.5h120.96c.83,0,1.5.67,1.5,1.5s-.67,1.5-1.5,1.5Z" style="fill: #a9b3fc;"/>
    <path d="m371.23,275.73h-23.31c-2.49,0-4.5-2.01-4.5-4.5s2.01-4.5,4.5-4.5h23.31c2.49,0,4.5,2.01,4.5,4.5s-2.01,4.5-4.5,4.5Z" style="fill: #242145;"/>
    <polygon points="75.42 226.54 39.8 252.41 53.4 294.29 97.43 294.29 111.04 252.41 75.42 226.54" style="fill: #91ffad;"/>
    <rect x="57.11" y="239.48" width="1" height="37.45" transform="translate(-205.76 233.2) rotate(-72)" style="fill: #1eba4e;"/>
    <rect x="74.5" y="257.7" width="37.45" height="1" transform="translate(-75.13 41.37) rotate(-17.97)" style="fill: #1eba4e;"/>
    <rect x="74.92" y="226.54" width="1" height="37.45" style="fill: #1eba4e;"/>
    <rect x="85.89" y="260.44" width="1" height="37.45" transform="translate(-147.19 103.56) rotate(-35.87)" style="fill: #1eba4e;"/>
    <rect x="45.72" y="278.66" width="37.45" height="1" transform="translate(-199.55 167.84) rotate(-54.14)" style="fill: #1eba4e;"/>
    <circle cx="60.25" cy="259.06" r="1.95" style="fill: #242145;"/>
    <circle cx="75.42" cy="240.25" r="1.95" style="fill: #242145;"/>
    <circle cx="81.57" cy="262.04" r="1.95" style="fill: #242145;"/>
    <circle cx="91.41" cy="286.2" r="1.95" style="fill: #242145;"/>
    <circle cx="67.82" cy="274.58" r="1.95" style="fill: #242145;"/>
    <path d="m92.37,287.23l-24.92-12.28-7.79-15.96,15.98-19.81,6.41,22.72,10.32,25.33Zm-24.17-13.03l22.26,10.97-9.35-22.94-5.9-20.91-14.36,17.8,7.36,15.08Z" style="fill: #242145;"/>
    <circle cx="30.33" cy="84.07" r="6.26" style="fill: #242145;"/>
    <circle cx="55.71" cy="120.97" r="6.26" style="fill: #242145;"/>
    <circle cx="91.37" cy="105.43" r="6.26" style="fill: #242145;"/>
    <circle cx="112.06" cy="76.81" r="6.26" style="fill: #242145;"/>
    <circle cx="128.38" cy="123.2" r="6.26" style="fill: #242145;"/>
    <circle cx="148.39" cy="89.33" r="6.26" style="fill: #242145;"/>
    <polygon points="128.03 126.74 111.59 80.01 92.35 106.64 55.17 122.84 29.09 84.92 31.56 83.22 56.24 119.1 90.4 104.22 112.52 73.6 128.73 119.67 147.1 88.56 149.68 90.09 128.03 126.74" style="fill: #242145;"/>
    <path d="m396.55,261.33h-48.64c-3.31,0-6-2.69-6-6s2.69-6,6-6h48.64c3.31,0,6,2.69,6,6s-2.69,6-6,6Z" style="fill: #ff78b9;"/>
  </g>
  <g id="Sparkles">
    <path d="m191.09,53.98c-4.16-2.68-6.97-7.03-7.71-11.93l-1.25-8.34c-.06-.41-.41-.71-.83-.71h0c-.42,0-.77.3-.83.71l-1.25,8.34c-.73,4.9-3.54,9.25-7.71,11.93l-1.08.7c-.24.15-.38.42-.38.71v.05c0,.29.14.55.38.71l1.08.7c4.16,2.68,6.97,7.03,7.71,11.93l1.25,8.34c.06.41.41.71.83.71h0c.42,0,.77-.3.83-.71l1.25-8.34c.73-4.9,3.54-9.25,7.71-11.93l1.08-.7c.24-.15.38-.42.38-.71v-.05c0-.29-.14-.55-.38-.71l-1.08-.7Z" style="fill: #ffe75c;"/>
    <path d="m347.42,67.9c-2.4-1.55-4.03-4.06-4.45-6.89l-.72-4.82c-.04-.24-.24-.41-.48-.41h0c-.24,0-.44.18-.48.41l-.72,4.82c-.42,2.83-2.04,5.34-4.45,6.89l-.62.4c-.14.09-.22.24-.22.41v.03c0,.16.08.32.22.41l.62.4c2.4,1.55,4.03,4.06,4.45,6.89l.72,4.82c.04.24.24.41.48.41h0c.24,0,.44-.18.48-.41l.72-4.82c.42-2.83,2.04-5.34,4.45-6.89l.62-.4c.14-.09.22-.24.22-.41v-.03c0-.16-.08-.32-.22-.41l-.62-.4Z" style="fill: #57f287;"/>
    <path d="m334.86,55.41c-1.08-.7-1.81-1.83-2-3.1l-.32-2.17c-.02-.11-.11-.19-.22-.19h0c-.11,0-.2.08-.22.19l-.32,2.17c-.19,1.27-.92,2.4-2,3.1l-.28.18c-.06.04-.1.11-.1.18h0c0,.09.04.16.1.2l.28.18c1.08.7,1.81,1.83,2,3.1l.32,2.17c.02.11.11.19.22.19h0c.11,0,.2-.08.22-.19l.32-2.17c.19-1.27.92-2.4,2-3.1l.28-.18c.06-.04.1-.11.1-.18h0c0-.09-.04-.16-.1-.2l-.28-.18Z" style="fill: #ff78b9;"/>
    <path d="m527.05,285.67c-1.98-1.27-3.31-3.34-3.66-5.67l-.59-3.96c-.03-.2-.2-.34-.39-.34h0c-.2,0-.36.14-.39.34l-.59,3.96c-.35,2.33-1.68,4.39-3.66,5.67l-.51.33c-.11.07-.18.2-.18.34v.02c0,.14.07.26.18.34l.51.33c1.98,1.28,3.31,3.34,3.66,5.67l.59,3.96c.03.2.2.34.39.34h0c.2,0,.36-.14.39-.34l.59-3.96c.35-2.33,1.68-4.39,3.66-5.67l.51-.33c.11-.07.18-.2.18-.34v-.02c0-.14-.07-.26-.18-.34l-.51-.33Z" style="fill: #ffe75c;"/>
    <path d="m539.42,292.81c-1.15-.74-1.93-1.95-2.14-3.31l-.35-2.31c-.02-.11-.11-.2-.23-.2h0c-.12,0-.21.08-.23.2l-.35,2.31c-.2,1.36-.98,2.56-2.14,3.31l-.3.19c-.07.04-.11.12-.11.2h0c0,.09.04.17.11.21l.3.19c1.15.74,1.93,1.95,2.14,3.31l.35,2.31c.02.11.11.2.23.2h0c.12,0,.21-.08.23-.2l.35-2.31c.2-1.36.98-2.56,2.14-3.31l.3-.19c.07-.04.11-.12.11-.2h0c0-.09-.04-.17-.11-.21l-.3-.19Z" style="fill: #ff78b9;"/>
    <path d="m532.31,302.28c-.82-.53-1.38-1.39-1.53-2.36l-.25-1.65c-.01-.08-.08-.14-.16-.14h0c-.08,0-.15.06-.16.14l-.25,1.65c-.15.97-.7,1.83-1.53,2.36l-.21.14s-.08.08-.08.14h0c0,.07.03.12.08.15l.21.14c.82.53,1.38,1.39,1.53,2.36l.25,1.65c.01.08.08.14.16.14h0c.08,0,.15-.06.16-.14l.25-1.65c.15-.97.7-1.83,1.53-2.36l.21-.14s.08-.08.08-.14h0c0-.07-.03-.12-.08-.15l-.21-.14Z" style="fill: #ffc619;"/>
    <path d="m192.98,234.77c-2.2-1.42-3.68-3.71-4.07-6.3l-.66-4.4c-.03-.22-.22-.38-.44-.38h0c-.22,0-.41.16-.44.38l-.66,4.4c-.39,2.59-1.87,4.88-4.07,6.3l-.57.37c-.13.08-.2.22-.2.37v.03c0,.15.08.29.2.37l.57.37c2.2,1.42,3.68,3.71,4.07,6.3l.66,4.4c.03.22.22.38.44.38h0c.22,0,.41-.16.44-.38l.66-4.4c.39-2.59,1.87-4.88,4.07-6.3l.57-.37c.13-.08.2-.22.2-.37v-.03c0-.15-.08-.29-.2-.37l-.57-.37Z" style="fill: #ff78b9;"/>
    <path d="m183,246.98c-1.1-.71-1.84-1.86-2.03-3.15l-.33-2.2c-.02-.11-.11-.19-.22-.19h0c-.11,0-.2.08-.22.19l-.33,2.2c-.19,1.29-.93,2.44-2.03,3.15l-.29.18c-.06.04-.1.11-.1.19h0c0,.09.04.16.1.2l.29.18c1.1.71,1.84,1.86,2.03,3.15l.33,2.2c.02.11.11.19.22.19h0c.11,0,.2-.08.22-.19l.33-2.2c.19-1.29.93-2.44,2.03-3.15l.29-.18c.06-.04.1-.11.1-.19h0c0-.09-.04-.16-.1-.2l-.29-.18Z" style="fill: #91ffad;"/>
    <path d="m169.31,34.04c-2.13-1.37-3.57-3.6-3.95-6.11l-.64-4.27c-.03-.21-.21-.37-.42-.37h0c-.21,0-.39.16-.42.37l-.64,4.27c-.38,2.51-1.81,4.73-3.94,6.11l-.55.36c-.12.08-.2.22-.2.36v.03c0,.15.07.28.2.36l.55.36c2.13,1.37,3.57,3.6,3.94,6.11l.64,4.27c.03.21.21.37.42.37h0c.21,0,.39-.16.42-.37l.64-4.27c.38-2.51,1.81-4.73,3.95-6.11l.55-.36c.12-.08.2-.22.2-.36v-.03c0-.15-.07-.28-.2-.36l-.55-.36Z" style="fill: #91ffad;"/>
    <path d="m41.26,228.51c1.98,1.27,3.31,3.34,3.66,5.67l.59,3.96c.03.2.2.34.39.34h0c.2,0,.36-.14.39-.34l.59-3.96c.35-2.33,1.68-4.39,3.66-5.67l.51-.33c.11-.07.18-.2.18-.34v-.02c0-.14-.07-.26-.18-.34l-.51-.33c-1.98-1.28-3.31-3.34-3.66-5.67l-.59-3.96c-.03-.2-.2-.34-.39-.34h0c-.2,0-.36.14-.39.34l-.59,3.96c-.35,2.33-1.68,4.39-3.66,5.67l-.51.33c-.11.07-.18.2-.18.34v.02c0,.14.07.26.18.34l.51.33Z" style="fill: #ffe75c;"/>
    <path d="m33.25,237.73c1.15.74,1.93,1.95,2.14,3.31l.35,2.31c.02.11.11.2.23.2h0c.12,0,.21-.08.23-.2l.35-2.31c.2-1.36.98-2.56,2.14-3.31l.3-.19c.07-.04.11-.12.11-.2h0c0-.09-.04-.17-.11-.21l-.3-.19c-1.15-.74-1.93-1.95-2.14-3.31l-.35-2.31c-.02-.11-.11-.2-.23-.2h0c-.12,0-.21.08-.23.2l-.35,2.31c-.2,1.36-.98,2.56-2.14,3.31l-.3.19c-.07.04-.11.12-.11.2h0c0,.09.04.17.11.21l.3.19Z" style="fill: #ff78b9;"/>
    <path d="m18.4,221.24c.82.53,1.38,1.39,1.53,2.36l.25,1.65c.01.08.08.14.16.14h0c.08,0,.15-.06.16-.14l.25-1.65c.15-.97.7-1.83,1.53-2.36l.21-.14s.08-.08.08-.14h0c0-.07-.03-.12-.08-.15l-.21-.14c-.82-.53-1.38-1.39-1.53-2.36l-.25-1.65c-.01-.08-.08-.14-.16-.14h0c-.08,0-.15.06-.16.14l-.25,1.65c-.15.97-.7,1.83-1.53,2.36l-.21.14s-.08.08-.08.14h0c0,.07.03.12.08.15l.21.14Z" style="fill: #ffc619;"/>
    <path d="m502.31,26.21c-1.98,1.27-3.31,3.34-3.66,5.67l-.59,3.96c-.03.2-.2.34-.39.34h0c-.2,0-.36-.14-.39-.34l-.59-3.96c-.35-2.33-1.68-4.39-3.66-5.67l-.51-.33c-.11-.07-.18-.2-.18-.34v-.02c0-.14.07-.26.18-.34l.51-.33c1.98-1.28,3.31-3.34,3.66-5.67l.59-3.96c.03-.2.2-.34.39-.34h0c.2,0,.36.14.39.34l.59,3.96c.35,2.33,1.68,4.39,3.66,5.67l.51.33c.11.07.18.2.18.34v.02c0,.14-.07.26-.18.34l-.51.33Z" style="fill: #ffc619;"/>
    <path d="m510.32,35.42c-1.15.74-1.93,1.95-2.14,3.31l-.35,2.31c-.02.11-.11.2-.23.2h0c-.12,0-.21-.08-.23-.2l-.35-2.31c-.2-1.36-.98-2.56-2.14-3.31l-.3-.19c-.07-.04-.11-.12-.11-.2h0c0-.09.04-.17.11-.21l.3-.19c1.15-.74,1.93-1.95,2.14-3.31l.35-2.31c.02-.11.11-.2.23-.2h0c.12,0,.21.08.23.2l.35,2.31c.2,1.36.98,2.56,2.14,3.31l.3.19c.07.04.11.12.11.2h0c0,.09-.04.17-.11.21l-.3.19Z" style="fill: #29cc7a;"/>
    <path d="m524.93,20.13c.82.53,1.38,1.39,1.53,2.36l.25,1.65c.01.08.08.14.16.14h0c.08,0,.15-.06.16-.14l.25-1.65c.15-.97.7-1.83,1.53-2.36l.21-.14s.08-.08.08-.14h0c0-.07-.03-.12-.08-.15l-.21-.14c-.82-.53-1.38-1.39-1.53-2.36l-.25-1.65c-.01-.08-.08-.14-.16-.14h0c-.08,0-.15.06-.16.14l-.25,1.65c-.15.97-.7,1.83-1.53,2.36l-.21.14s-.08.08-.08.14h0c0,.07.03.12.08.15l.21.14Z" style="fill: #ffe75c;"/>
  </g>
</svg>